<svg xmlns="http://www.w3.org/2000/svg" viewBox="0 0 600 800" preserveAspectRatio="xMidYMid slice">
<defs>
<linearGradient id="s" x1="0" y1="0" x2="0" y2="1"><stop offset="0" stop-color="#FFD9C9"/><stop offset=".45" stop-color="#FFC1B3"/><stop offset=".75" stop-color="#F9A99B"/><stop offset="1" stop-color="#F3B69A"/></linearGradient>
<radialGradient id="sun" cx=".5" cy=".5" r=".5"><stop offset="0" stop-color="#FFF6DA"/><stop offset=".6" stop-color="#FFE3B0"/><stop offset="1" stop-color="#FFE3B0" stop-opacity="0"/></radialGradient>
</defs>
<rect width="600" height="800" fill="url(#s)"/>
<circle cx="300" cy="470" r="190" fill="url(#sun)"/>
<circle cx="300" cy="470" r="80" fill="#FFF3D6"/>
<g fill="#fff" opacity=".55"><ellipse cx="120" cy="170" rx="90" ry="18"/><ellipse cx="180" cy="150" rx="60" ry="16"/><ellipse cx="470" cy="240" rx="100" ry="16"/></g>
<path d="M0 560 Q150 500 300 545 T600 530 V800 H0Z" fill="#E7967F" opacity=".7"/>
<path d="M0 610 Q200 560 380 600 T600 590 V800 H0Z" fill="#D9836E"/>
<path d="M0 680 Q300 640 600 680 V800 H0Z" fill="#C8735F"/>
<g transform="translate(272 640) scale(1)" fill="#8A4C43">
  <circle cx="0" cy="-150" r="17"/>
  <path d="M-22 -128 Q0 -136 22 -128 L28 -40 L18 -40 L16 60 L4 60 L2 -20 L-2 -20 L-4 60 L-16 60 L-18 -40 L-28 -40 Z"/>
  <circle cx="58" cy="-140" r="15"/>
  <path d="M60 -158 q18 4 14 30 q-4 -14 -14 -12 Z"/>
  <path d="M44 -122 Q58 -128 72 -122 L76 -70 L112 60 L8 60 L40 -70 Z"/>
  <path d="M22 -110 L46 -100 L44 -92 L22 -100 Z"/>
</g>
<g fill="#fff" opacity=".8"><path d="M420 130 l6 -10 l6 10 l-6 10z"/><circle cx="90" cy="300" r="2"/><circle cx="520" cy="110" r="2.5"/></g>
</svg>
